<svg id="animated-svg" width="1644" height="1020" viewBox="0 0 1644 1020" fill="none" xmlns="http://www.w3.org/2000/svg">
  <path d="M1633.02 191.365C1619.02 192.64 1160.83 318.896 1149.38 322.722C1137.92 326.548 1137.92 330.374 1149.38 330.374C1160.83 330.374 1570.65 321.447 1585.93 321.447C1601.2 321.447 1602.47 334.2 1584.65 339.301C1573.2 341.852 1163.38 400.516 849.009 441.326C647.915 468.108 492.641 484.687 486.277 484.687C477.368 499.991 453.186 593.089 449.368 603.291C445.55 613.494 441.731 621.146 453.186 617.32C464.641 613.494 631.37 581.611 720.462 617.32C733.189 622.421 733.189 613.494 737.007 605.842C740.826 598.19 795.553 520.396 845.19 526.773C875.736 530.598 884.645 545.902 883.373 556.105C882.1 566.307 796.826 619.871 751.007 627.522C739.553 630.073 742.098 632.624 748.462 639C754.826 645.377 773.917 674.709 747.189 693.839C739.553 701.491 271.184 683.636 225.365 684.912C213.91 683.636 212.638 691.288 222.82 693.839C233.002 696.389 537.187 734.649 591.915 735.924C600.824 735.924 602.097 744.851 589.369 751.228C576.642 757.605 244.456 761.431 199.91 756.329C191.001 757.605 187.183 758.88 192.274 769.082C215.183 821.37 272.457 837.949 272.457 897.889C272.457 904.266 271.184 918.294 263.547 927.221C271.184 933.598 304.275 966.756 314.457 971.858C319.548 968.032 327.185 950.177 337.366 960.38C348.821 969.307 314.457 1007.57 309.366 1015.22C303.002 1021.59 294.093 1017.77 286.457 1010.12C280.093 1003.74 241.911 952.728 234.274 951.453C230.456 956.554 192.274 960.38 183.365 955.278C178.274 962.93 160.455 993.538 159.183 997.364C164.274 1002.47 177.001 1010.12 170.637 1017.77C165.546 1026.7 131.182 1006.29 126.091 1001.19C121 997.364 123.546 996.089 127.364 992.263C131.182 988.437 155.364 952.728 154.092 942.525C151.546 932.323 142.637 925.946 133.728 927.221C124.819 928.497 104.455 938.699 73.9089 937.424C43.3631 936.149 2.6354 918.294 0.0899157 864.731C-2.45557 830.298 49.7268 812.443 70.0907 816.269C90.4546 818.82 112.091 831.573 113.364 862.18C114.637 892.788 82.8181 899.165 68.818 899.165C56.0905 899.165 36.9994 890.237 34.4539 873.658C31.9085 857.079 57.3633 844.326 64.9997 845.601C73.9089 846.877 76.4544 849.427 75.1817 857.079C75.1817 864.731 66.2725 869.832 62.4543 871.108C57.3633 873.658 56.0905 877.484 62.4543 878.76C67.5452 878.76 95.5455 885.136 95.5455 858.355C95.5455 831.573 73.9089 834.124 64.9997 834.124C57.3633 834.124 15.3628 837.949 16.6356 873.658C17.9083 909.367 59.9088 917.019 71.3634 917.019C82.8181 917.019 112.091 915.744 131.182 901.715C131.182 890.237 156.637 775.459 161.728 752.503C140.091 742.301 89.1818 730.823 89.1818 678.535C89.1818 651.753 114.637 633.899 132.455 630.073C109.546 575.235 53.5451 482.137 81.5454 188.814C81.5454 168.409 90.4546 149.279 104.455 176.061C117.182 202.842 174.456 317.621 183.365 348.228C210.092 350.779 388.276 350.779 409.913 346.953C416.276 329.099 488.823 173.51 496.459 159.482C504.096 145.453 511.732 146.729 513.005 164.583C514.278 181.162 499.005 391.589 499.005 405.618C510.459 399.241 701.371 325.273 907.555 242.377C1177.38 131.425 1479.02 5.16863 1491.74 1.34265C1514.65 -5.03392 1513.38 12.8205 1493.02 23.023C1472.65 33.2256 1073.01 224.523 1065.37 228.349C1057.74 232.175 1057.74 237.276 1066.65 236.001C1075.56 234.725 1617.74 173.51 1633.02 172.235C1648.29 170.96 1647.02 190.089 1633.02 191.365ZM1444.65 220.697C1458.65 215.596 1456.11 205.393 1443.38 207.944C1430.65 210.494 1038.65 256.406 1011.92 256.406C985.192 256.406 999.192 244.928 1009.37 239.827C1019.56 234.725 1293.2 99.542 1303.38 95.716C1313.56 91.89 1313.56 82.9628 1300.83 88.0641C1295.74 90.6147 1178.65 146.729 1036.1 207.944C947.01 244.928 847.736 279.361 758.644 316.346C617.37 377.561 501.55 426.023 496.459 428.573C497.732 438.776 492.641 457.905 490.095 468.108C495.186 468.108 696.28 445.152 893.555 420.921C1143.01 390.314 1401.38 354.605 1409.01 352.054C1423.02 348.228 1417.92 341.852 1409.01 341.852C1400.11 341.852 1089.56 344.402 1070.47 346.953C1051.37 349.504 1059.01 331.649 1071.74 329.099C1084.47 326.548 1430.65 225.798 1444.65 220.697ZM465.913 461.731C465.913 455.355 458.277 445.152 450.64 450.254C445.55 452.804 439.186 452.804 437.913 457.905C435.368 463.007 435.368 470.659 443.004 471.934C451.913 474.485 465.913 471.934 465.913 461.731ZM416.276 623.697C427.731 622.421 411.185 604.567 408.64 612.219C406.095 618.595 395.913 617.32 395.913 613.494C395.913 609.668 397.185 605.842 390.822 607.117C385.731 608.393 376.821 607.117 379.367 599.466C380.64 590.538 376.821 587.988 367.912 587.988C359.003 587.988 357.73 581.611 362.821 576.51C367.912 572.684 367.912 570.133 359.003 567.583C348.821 566.307 348.821 558.655 353.912 552.279C359.003 545.902 353.912 544.627 345.003 545.902C334.821 548.453 332.275 536.975 338.639 533.149C343.73 529.323 351.367 520.396 329.73 522.947C318.275 524.222 318.275 512.744 322.094 508.918C325.912 505.092 329.73 499.991 320.821 497.44C294.093 492.339 304.275 475.76 310.639 469.383C315.73 464.282 318.275 454.08 305.548 457.905C292.821 461.731 286.457 446.428 295.366 440.051C303.002 433.675 323.366 432.399 329.73 432.399C336.094 432.399 338.639 424.747 331.003 420.921C322.094 418.371 310.639 420.921 296.639 420.921C283.911 422.197 287.73 404.342 300.457 401.792C313.184 399.241 313.184 390.314 300.457 391.589C287.73 391.589 295.366 373.735 301.73 372.459C306.821 372.459 320.821 367.358 300.457 364.808C281.366 362.257 154.092 371.184 142.637 373.735C135.001 359.706 100.637 313.795 93.0001 297.216C76.4544 431.124 113.364 522.947 159.183 631.348C178.274 631.348 403.549 624.972 416.276 623.697ZM234.274 505.092C234.274 522.947 227.911 543.352 201.183 542.076C174.456 540.801 161.728 524.222 164.274 508.918C166.819 492.339 166.819 475.76 205.001 473.209C220.274 473.209 234.274 487.238 234.274 505.092ZM199.91 515.295C207.547 515.295 205.001 499.991 199.91 501.266L198.638 499.991C183.365 502.542 192.274 515.295 199.91 515.295Z" fill="var(--svg-fill-color, black)"/>
</svg>